<?xml version="1.0" encoding="UTF-8"?>
<svg xmlns="http://www.w3.org/2000/svg" width="1600" height="840" viewBox="0 0 1600 840" role="img" aria-labelledby="title desc">
  <title id="title">Awesome Generative AI Banner</title>
  <desc id="desc">Professional banner for Awesome Generative AI showing the main value proposition and key product areas.</desc>
  <defs>
    <linearGradient id="bg" x1="0" y1="0" x2="1" y2="1">
      <stop offset="0%" stop-color="#08111f"/>
      <stop offset="55%" stop-color="#102036"/>
      <stop offset="100%" stop-color="#152942"/>
    </linearGradient>
    <linearGradient id="panel" x1="0" y1="0" x2="1" y2="1">
      <stop offset="0%" stop-color="#101d30" stop-opacity="0.96"/>
      <stop offset="100%" stop-color="#0c1727" stop-opacity="0.96"/>
    </linearGradient>
    <linearGradient id="cyan" x1="0" y1="0" x2="1" y2="0">
      <stop offset="0%" stop-color="#22d3ee"/>
      <stop offset="100%" stop-color="#38bdf8"/>
    </linearGradient>
    <linearGradient id="green" x1="0" y1="0" x2="1" y2="0">
      <stop offset="0%" stop-color="#34d399"/>
      <stop offset="100%" stop-color="#10b981"/>
    </linearGradient>
    <linearGradient id="gold" x1="0" y1="0" x2="1" y2="0">
      <stop offset="0%" stop-color="#fbbf24"/>
      <stop offset="100%" stop-color="#f59e0b"/>
    </linearGradient>
    <linearGradient id="violet" x1="0" y1="0" x2="1" y2="0">
      <stop offset="0%" stop-color="#a78bfa"/>
      <stop offset="100%" stop-color="#8b5cf6"/>
    </linearGradient>
    <filter id="blur" x="-25%" y="-25%" width="150%" height="150%">
      <feGaussianBlur stdDeviation="42"/>
    </filter>
  </defs>

  <rect width="1600" height="840" fill="url(#bg)"/>

  <circle cx="1240" cy="160" r="220" fill="#0ea5e9" fill-opacity="0.16" filter="url(#blur)"/>
  <circle cx="1390" cy="660" r="190" fill="#34d399" fill-opacity="0.10" filter="url(#blur)"/>
  <circle cx="240" cy="120" r="140" fill="#22d3ee" fill-opacity="0.06" filter="url(#blur)"/>

  <g font-family="Segoe UI, Arial, sans-serif">
    <text x="110" y="120" font-size="28" fill="#7dd3fc">builder-first curated map</text>
    <text x="110" y="235" font-size="76" font-weight="700" fill="#f8fbff">Awesome Generative AI</text>
    <text x="110" y="305" font-size="34" fill="#c9d7e7">Practical resources for shipping modern AI products</text>

    <text x="110" y="395" font-size="24" fill="#9fb3c8">Agents, MCP, speech, vision, APIs, datasets, and tooling</text>
    <text x="110" y="432" font-size="24" fill="#9fb3c8">organized for builders, not for endless scrolling.</text>

    <g font-size="20" font-weight="600">
      <rect x="110" y="500" width="154" height="46" rx="23" fill="#0d1726" stroke="#38bdf8" stroke-opacity="0.58" stroke-width="2"/>
      <text x="144" y="530" fill="#eef6ff">Curated</text>

      <rect x="280" y="500" width="176" height="46" rx="23" fill="#0d1726" stroke="#34d399" stroke-opacity="0.58" stroke-width="2"/>
      <text x="314" y="530" fill="#eef6ff">Opinionated</text>

      <rect x="472" y="500" width="180" height="46" rx="23" fill="#0d1726" stroke="#a78bfa" stroke-opacity="0.58" stroke-width="2"/>
      <text x="506" y="530" fill="#eef6ff">Builder-First</text>
    </g>

    <g transform="translate(850,92)">
      <rect x="0" y="0" width="650" height="656" rx="34" fill="url(#panel)" stroke="#314760" stroke-opacity="0.95" stroke-width="2"/>
      <text x="42" y="64" font-size="38" font-weight="700" fill="#f8fbff">What You Will Find</text>
      <text x="42" y="102" font-size="21" fill="#9fb3c8">A cleaner path through the generative AI stack</text>

      <g transform="translate(42,150)">
        <rect x="0" y="0" width="564" height="114" rx="22" fill="#102033" stroke="#38bdf8" stroke-opacity="0.50" stroke-width="2"/>
        <rect x="0" y="0" width="8" height="102" rx="4" fill="url(#cyan)"/>
        <text x="28" y="36" font-size="18" fill="#7dd3fc">AGENTIC APPS</text>
        <text x="28" y="70" font-size="24" font-weight="700" fill="#f8fbff">
          <tspan x="28" dy="0">Agents, coding tools,</tspan>
          <tspan x="28" dy="30">memory, orchestration</tspan>
        </text>
      </g>

      <g transform="translate(42,274)">
        <rect x="0" y="0" width="564" height="114" rx="22" fill="#102033" stroke="#34d399" stroke-opacity="0.50" stroke-width="2"/>
        <rect x="0" y="0" width="8" height="102" rx="4" fill="url(#green)"/>
        <text x="28" y="36" font-size="18" fill="#86efac">VOICE PRODUCTS</text>
        <text x="28" y="70" font-size="24" font-weight="700" fill="#f8fbff">
          <tspan x="28" dy="0">STT, TTS, cloning, emotion,</tspan>
          <tspan x="28" dy="30">speech UX</tspan>
        </text>
      </g>

      <g transform="translate(42,398)">
        <rect x="0" y="0" width="564" height="114" rx="22" fill="#102033" stroke="#f59e0b" stroke-opacity="0.55" stroke-width="2"/>
        <rect x="0" y="0" width="8" height="102" rx="4" fill="url(#gold)"/>
        <text x="28" y="36" font-size="18" fill="#fdba74">VISION AND MEDIA</text>
        <text x="28" y="70" font-size="24" font-weight="700" fill="#f8fbff">
          <tspan x="28" dy="0">Image, video, talking head,</tspan>
          <tspan x="28" dy="30">multimodal flows</tspan>
        </text>
      </g>

      <g transform="translate(42,522)">
        <rect x="0" y="0" width="564" height="114" rx="22" fill="#102033" stroke="#8b5cf6" stroke-opacity="0.55" stroke-width="2"/>
        <rect x="0" y="0" width="8" height="114" rx="4" fill="url(#violet)"/>
        <text x="28" y="34" font-size="18" fill="#c4b5fd">MODELS AND INFRA</text>
        <text x="28" y="66" font-size="24" font-weight="700" fill="#f8fbff">
          <tspan x="28" dy="0">MCP, APIs, transformers,</tspan>
          <tspan x="28" dy="30">practical stack picks</tspan>
        </text>
      </g>
    </g>
  </g>
</svg>
