<?xml version="1.0" encoding="UTF-8"?>
<svg xmlns="http://www.w3.org/2000/svg" width="1800" height="560" viewBox="0 0 1800 560">
  <defs>
    <linearGradient id="bg" x1="0" y1="0" x2="1" y2="1">
      <stop offset="0%" stop-color="#081524"/>
      <stop offset="45%" stop-color="#0c3140"/>
      <stop offset="100%" stop-color="#0a1f2d"/>
    </linearGradient>
    <radialGradient id="glow" cx="0.12" cy="0.12" r="0.7">
      <stop offset="0%" stop-color="#22d3ee" stop-opacity="0.45"/>
      <stop offset="60%" stop-color="#22d3ee" stop-opacity="0.12"/>
      <stop offset="100%" stop-color="#22d3ee" stop-opacity="0"/>
    </radialGradient>
    <pattern id="dots" width="28" height="28" patternUnits="userSpaceOnUse">
      <circle cx="2" cy="2" r="1.2" fill="#94a3b8" fill-opacity="0.15"/>
    </pattern>
    <linearGradient id="wave" x1="0" y1="0" x2="1" y2="0">
      <stop offset="0%" stop-color="#67e8f9" stop-opacity="0.2"/>
      <stop offset="55%" stop-color="#5eead4" stop-opacity="0.55"/>
      <stop offset="100%" stop-color="#60a5fa" stop-opacity="0.2"/>
    </linearGradient>
  </defs>

  <rect width="1800" height="560" fill="url(#bg)"/>
  <rect width="1800" height="560" fill="url(#glow)"/>
  <rect width="1800" height="560" fill="url(#dots)"/>

  <circle cx="1430" cy="150" r="160" fill="none" stroke="#22d3ee" stroke-opacity="0.18" stroke-width="2"/>
  <circle cx="1430" cy="150" r="240" fill="none" stroke="#22d3ee" stroke-opacity="0.1" stroke-width="2"/>
  <circle cx="1620" cy="390" r="95" fill="#0f766e" fill-opacity="0.2"/>
  <circle cx="1730" cy="340" r="46" fill="#14b8a6" fill-opacity="0.3"/>

  <path d="M0 395 C 190 350, 360 440, 540 410 C 720 380, 900 300, 1080 320 C 1260 340, 1440 420, 1800 380"
        fill="none" stroke="url(#wave)" stroke-width="5"/>
  <path d="M0 430 C 220 400, 420 480, 640 450 C 860 420, 1100 360, 1320 395 C 1540 430, 1660 460, 1800 430"
        fill="none" stroke="#38bdf8" stroke-opacity="0.2" stroke-width="2"/>

  <g font-family="Space Grotesk, Sora, system-ui, sans-serif" fill="#e2e8f0">
    <text x="140" y="240" font-size="84" font-weight="700">Awesome Generative AI Resources</text>
    <text x="140" y="292" font-size="34" fill="#cbd5f5">Speech | Vision | Agents | MCP</text>
    <text x="140" y="340" font-size="24" fill="#9fb3c8">Curated models, tools, datasets, and frameworks for builders</text>
  </g>

  <g font-family="Space Grotesk, Sora, system-ui, sans-serif" font-size="18" fill="#e2e8f0">
    <rect x="140" y="370" width="150" height="38" rx="19" fill="#0f172a" fill-opacity="0.7" stroke="#38bdf8" stroke-opacity="0.35"/>
    <text x="175" y="395">Models</text>

    <rect x="310" y="370" width="160" height="38" rx="19" fill="#0f172a" fill-opacity="0.7" stroke="#2dd4bf" stroke-opacity="0.35"/>
    <text x="344" y="395">Datasets</text>

    <rect x="490" y="370" width="135" height="38" rx="19" fill="#0f172a" fill-opacity="0.7" stroke="#60a5fa" stroke-opacity="0.35"/>
    <text x="523" y="395">Agents</text>

    <rect x="645" y="370" width="120" height="38" rx="19" fill="#0f172a" fill-opacity="0.7" stroke="#67e8f9" stroke-opacity="0.35"/>
    <text x="678" y="395">MCP</text>
  </g>

  <g stroke="#2dd4bf" stroke-opacity="0.45" stroke-width="2">
    <line x1="140" y1="355" x2="260" y2="355"/>
    <line x1="272" y1="355" x2="340" y2="355"/>
  </g>
</svg>
