<?xml version="1.0" encoding="UTF-8"?>
<svg xmlns="http://www.w3.org/2000/svg" width="1800" height="560" viewBox="0 0 1800 560">
  <defs>
    <linearGradient id="bg" x1="0" y1="0" x2="1" y2="1">
      <stop offset="0%" stop-color="#08111f"/>
      <stop offset="50%" stop-color="#0d1d2f"/>
      <stop offset="100%" stop-color="#13263a"/>
    </linearGradient>
    <linearGradient id="panel" x1="0" y1="0" x2="1" y2="1">
      <stop offset="0%" stop-color="#11233a" stop-opacity="0.95"/>
      <stop offset="100%" stop-color="#0b1728" stop-opacity="0.95"/>
    </linearGradient>
    <linearGradient id="accentA" x1="0" y1="0" x2="1" y2="0">
      <stop offset="0%" stop-color="#22d3ee"/>
      <stop offset="100%" stop-color="#38bdf8"/>
    </linearGradient>
    <linearGradient id="accentB" x1="0" y1="0" x2="1" y2="0">
      <stop offset="0%" stop-color="#34d399"/>
      <stop offset="100%" stop-color="#2dd4bf"/>
    </linearGradient>
    <filter id="softGlow" x="-20%" y="-20%" width="140%" height="140%">
      <feGaussianBlur stdDeviation="18"/>
    </filter>
  </defs>

  <rect width="1800" height="560" fill="url(#bg)"/>
  <circle cx="1380" cy="120" r="220" fill="#0ea5e9" fill-opacity="0.18" filter="url(#softGlow)"/>
  <circle cx="1620" cy="410" r="180" fill="#34d399" fill-opacity="0.12" filter="url(#softGlow)"/>

  <g font-family="Space Grotesk, Sora, system-ui, sans-serif" fill="#e5eefb">
    <text x="120" y="170" font-size="32" fill="#7dd3fc">builder-first curated map</text>
    <text x="120" y="250" font-size="86" font-weight="700">Awesome Generative AI</text>
    <text x="120" y="312" font-size="32" fill="#c4d4e8">Agents, MCP, Speech, Vision, APIs</text>
    <text x="120" y="364" font-size="24" fill="#9db3c8">Opinionated resources for shipping real AI products faster</text>
  </g>

  <g font-family="Space Grotesk, Sora, system-ui, sans-serif" font-size="18" fill="#e5eefb">
    <rect x="120" y="396" width="178" height="40" rx="20" fill="#0d1725" stroke="#38bdf8" stroke-opacity="0.5"/>
    <text x="152" y="422">Practical Picks</text>
    <rect x="314" y="396" width="165" height="40" rx="20" fill="#0d1725" stroke="#34d399" stroke-opacity="0.5"/>
    <text x="345" y="422">Build Paths</text>
    <rect x="495" y="396" width="188" height="40" rx="20" fill="#0d1725" stroke="#67e8f9" stroke-opacity="0.5"/>
    <text x="528" y="422">Curated Stack Map</text>
  </g>

  <g transform="translate(1080,84)">
    <rect x="0" y="0" width="570" height="392" rx="30" fill="url(#panel)" stroke="#35506e" stroke-opacity="0.65"/>
    <text x="36" y="52" font-family="Space Grotesk, Sora, system-ui, sans-serif" font-size="28" font-weight="700" fill="#e5eefb">What You Can Build</text>

    <rect x="36" y="84" width="232" height="102" rx="20" fill="#0f2136" stroke="#38bdf8" stroke-opacity="0.45"/>
    <text x="58" y="118" font-family="Space Grotesk, Sora, system-ui, sans-serif" font-size="15" fill="#7dd3fc">AGENTIC APPS</text>
    <text x="58" y="148" font-family="Space Grotesk, Sora, system-ui, sans-serif" font-size="28" font-weight="700" fill="#f8fbff">Agents + Memory</text>
    <rect x="58" y="160" width="160" height="8" rx="4" fill="url(#accentA)"/>

    <rect x="302" y="84" width="232" height="102" rx="20" fill="#102436" stroke="#34d399" stroke-opacity="0.45"/>
    <text x="324" y="118" font-family="Space Grotesk, Sora, system-ui, sans-serif" font-size="15" fill="#86efac">VOICE PRODUCTS</text>
    <text x="324" y="148" font-family="Space Grotesk, Sora, system-ui, sans-serif" font-size="28" font-weight="700" fill="#f8fbff">STT + TTS Stack</text>
    <rect x="324" y="160" width="152" height="8" rx="4" fill="url(#accentB)"/>

    <rect x="36" y="214" width="232" height="102" rx="20" fill="#0f2136" stroke="#f59e0b" stroke-opacity="0.45"/>
    <text x="58" y="248" font-family="Space Grotesk, Sora, system-ui, sans-serif" font-size="15" fill="#fdba74">VISION TOOLS</text>
    <text x="58" y="278" font-family="Space Grotesk, Sora, system-ui, sans-serif" font-size="28" font-weight="700" fill="#f8fbff">Image + Video</text>
    <rect x="58" y="290" width="146" height="8" rx="4" fill="#f59e0b"/>

    <rect x="302" y="214" width="232" height="102" rx="20" fill="#102436" stroke="#a78bfa" stroke-opacity="0.45"/>
    <text x="324" y="248" font-family="Space Grotesk, Sora, system-ui, sans-serif" font-size="15" fill="#c4b5fd">TOOL INTEGRATION</text>
    <text x="324" y="278" font-family="Space Grotesk, Sora, system-ui, sans-serif" font-size="28" font-weight="700" fill="#f8fbff">MCP + APIs</text>
    <rect x="324" y="290" width="136" height="8" rx="4" fill="#a78bfa"/>

    <text x="36" y="352" font-family="Space Grotesk, Sora, system-ui, sans-serif" font-size="20" fill="#a8c0d9">A practical map for choosing tools, models, datasets, and frameworks.</text>
  </g>
</svg>
