<?xml version="1.0" encoding="UTF-8"?>
<svg xmlns="http://www.w3.org/2000/svg" width="1600" height="500" viewBox="0 0 1600 500">
  <defs>
    <linearGradient id="bg" x1="0" y1="0" x2="1" y2="1">
      <stop offset="0%" stop-color="#0b1b2b"/>
      <stop offset="45%" stop-color="#0f3d4a"/>
      <stop offset="100%" stop-color="#0a2433"/>
    </linearGradient>
    <radialGradient id="glow" cx="0.15" cy="0.15" r="0.6">
      <stop offset="0%" stop-color="#2dd4bf" stop-opacity="0.35"/>
      <stop offset="60%" stop-color="#2dd4bf" stop-opacity="0.08"/>
      <stop offset="100%" stop-color="#2dd4bf" stop-opacity="0"/>
    </radialGradient>
    <pattern id="grid" width="40" height="40" patternUnits="userSpaceOnUse">
      <path d="M40 0H0V40" fill="none" stroke="#5eead4" stroke-opacity="0.08" stroke-width="1"/>
    </pattern>
    <linearGradient id="wave" x1="0" y1="0" x2="1" y2="0">
      <stop offset="0%" stop-color="#7dd3fc" stop-opacity="0.15"/>
      <stop offset="50%" stop-color="#2dd4bf" stop-opacity="0.4"/>
      <stop offset="100%" stop-color="#7dd3fc" stop-opacity="0.15"/>
    </linearGradient>
  </defs>

  <rect width="1600" height="500" fill="url(#bg)"/>
  <rect width="1600" height="500" fill="url(#glow)"/>
  <rect width="1600" height="500" fill="url(#grid)"/>

  <circle cx="1260" cy="130" r="150" fill="none" stroke="#22d3ee" stroke-opacity="0.15" stroke-width="2"/>
  <circle cx="1260" cy="130" r="220" fill="none" stroke="#22d3ee" stroke-opacity="0.08" stroke-width="2"/>
  <circle cx="1400" cy="360" r="90" fill="#0f766e" fill-opacity="0.18"/>
  <circle cx="1540" cy="320" r="40" fill="#14b8a6" fill-opacity="0.3"/>

  <path d="M0 340 C 160 300, 320 390, 480 360 C 640 330, 800 240, 960 260 C 1120 280, 1280 360, 1600 320"
        fill="none" stroke="url(#wave)" stroke-width="4"/>
  <path d="M0 370 C 200 340, 360 420, 560 390 C 760 360, 980 300, 1180 330 C 1380 360, 1500 390, 1600 360"
        fill="none" stroke="#38bdf8" stroke-opacity="0.18" stroke-width="2"/>

  <g fill="#e2e8f0" fill-opacity="0.9">
    <circle cx="240" cy="300" r="4"/>
    <circle cx="420" cy="320" r="4"/>
    <circle cx="600" cy="340" r="4"/>
    <circle cx="780" cy="300" r="4"/>
    <circle cx="960" cy="320" r="4"/>
    <circle cx="1140" cy="350" r="4"/>
  </g>

  <g font-family="Space Grotesk, Sora, sans-serif" fill="#e2e8f0">
    <text x="120" y="210" font-size="54" font-weight="700">Awesome Generative AI Resources</text>
    <text x="120" y="255" font-size="22" fill="#cbd5f5">Speech | Vision | Agents | MCP</text>
    <text x="120" y="300" font-size="18" fill="#9fb3c8">Curated models, tools, datasets, and frameworks for builders</text>
  </g>

  <g stroke="#2dd4bf" stroke-opacity="0.5" stroke-width="2">
    <line x1="120" y1="320" x2="210" y2="320"/>
    <line x1="220" y1="320" x2="260" y2="320"/>
  </g>
</svg>
